<svg width="165" height="55" viewBox="0 0 165 55" fill="none" xmlns="http://www.w3.org/2000/svg">
<rect x="1" y="1" width="163" height="53" rx="9" stroke="white" stroke-width="2"/>
<path d="M44 18.5451H44.983V17.6936H47.8629V18.5451H48.8459V16.8283H48.4306V13.0762H45.1492L44.8792 15.4368C44.7338 16.6552 44.4707 16.8421 44 16.9044V18.5451ZM45.8553 15.506L46.0353 13.9415H47.4406V16.8283H45.2946C45.5853 16.5583 45.7861 16.1291 45.8553 15.506Z" fill="white"/>
<path d="M51.6093 17.7767C53.0076 17.7767 54.0253 16.7798 54.0253 15.3884C54.0253 13.9969 53.0076 13 51.6093 13C50.2178 13 49.2001 13.9969 49.2001 15.3884C49.2001 16.7798 50.2178 17.7767 51.6093 17.7767ZM51.6093 16.9044C50.7578 16.9044 50.2109 16.2468 50.2109 15.3884C50.2109 14.523 50.7578 13.8723 51.6093 13.8723C52.4607 13.8723 53.0146 14.523 53.0146 15.3884C53.0146 16.2468 52.4607 16.9044 51.6093 16.9044Z" fill="white"/>
<path d="M56.9512 17.7767C57.9688 17.7767 58.5503 17.216 58.8826 16.6414L58.0381 16.2329C57.8442 16.6137 57.4289 16.9044 56.9512 16.9044C56.1135 16.9044 55.5043 16.2606 55.5043 15.3884C55.5043 14.5161 56.1135 13.8723 56.9512 13.8723C57.4289 13.8723 57.8442 14.1699 58.0381 14.5438L58.8826 14.1284C58.5573 13.5538 57.9688 13 56.9512 13C55.5666 13 54.4936 13.9692 54.4936 15.3884C54.4936 16.8075 55.5666 17.7767 56.9512 17.7767Z" fill="white"/>
<path d="M61.5238 17.6936V13.9415H62.8668V13.0762H59.1839V13.9415H60.5339V17.6936H61.5238Z" fill="white"/>
<path d="M64.1201 17.7767C64.9439 17.7767 65.3454 17.3683 65.6292 16.8075L67.533 13.0762H66.4184L65.2693 15.5268L64.127 13.0762H63.0124L64.7154 16.4268C64.5355 16.766 64.3832 16.9044 64.0439 16.9044C63.8224 16.9044 63.6078 16.7868 63.4486 16.6552L63.0747 17.4444C63.2824 17.6313 63.6978 17.7767 64.1201 17.7767Z" fill="white"/>
<path d="M72.1126 17.6936V13.0762H67.959V17.6936H68.942V13.9415H71.1227V17.6936H72.1126Z" fill="white"/>
<path d="M77.1762 17.6936V13.0762H76.1863V14.8899H74.0056V13.0762H73.0226V17.6936H74.0056V15.7553H76.1863V17.6936H77.1762Z" fill="white"/>
<path d="M80.2738 17.7767C81.6722 17.7767 82.6898 16.7798 82.6898 15.3884C82.6898 13.9969 81.6722 13 80.2738 13C78.8823 13 77.8647 13.9969 77.8647 15.3884C77.8647 16.7798 78.8823 17.7767 80.2738 17.7767ZM80.2738 16.9044C79.4223 16.9044 78.8754 16.2468 78.8754 15.3884C78.8754 14.523 79.4223 13.8723 80.2738 13.8723C81.1253 13.8723 81.6791 14.523 81.6791 15.3884C81.6791 16.2468 81.1253 16.9044 80.2738 16.9044Z" fill="white"/>
<path d="M87.657 17.6936C88.5362 17.6936 89 17.1398 89 16.4475C89 15.866 88.6054 15.3884 88.1139 15.3122C88.55 15.2222 88.91 14.8345 88.91 14.253C88.91 13.6369 88.46 13.0762 87.5808 13.0762H85.1509V17.6936H87.657ZM87.3662 14.9245H86.134V13.9207H87.3662C87.6985 13.9207 87.9062 14.1353 87.9062 14.4261C87.9062 14.7168 87.6985 14.9245 87.3662 14.9245ZM87.4008 16.8421H86.134V15.7691H87.4008C87.7885 15.7691 87.9962 16.0183 87.9962 16.3091C87.9962 16.6414 87.7747 16.8421 87.4008 16.8421Z" fill="white"/>
<path d="M13.1353 23.5577C10.8594 27.372 12.3063 33.1605 14.823 36.6702C16.0793 38.4249 17.3512 40 19.0933 40C19.1261 40 19.159 39.9994 19.1928 39.9981C20.0112 39.9666 20.6027 39.7232 21.1746 39.488C21.8166 39.2238 22.4806 38.9505 23.5221 38.9505C24.513 38.9505 25.1453 39.2149 25.7568 39.4705C26.3595 39.7223 26.9803 39.9828 27.8975 39.9662C29.8598 39.9309 31.0646 38.2312 32.1276 36.7318C33.2368 35.1663 33.7932 33.6463 33.981 33.0654L33.9886 33.0423C34.0243 32.9391 33.9738 32.8264 33.8713 32.781C33.8685 32.7797 33.8581 32.7755 33.8552 32.7743C33.5096 32.6378 30.4785 31.3391 30.4466 27.7993C30.417 24.9235 32.7206 23.4006 33.1825 23.1245L33.2041 23.1116C33.2541 23.0805 33.289 23.0311 33.3008 22.9747C33.3126 22.9183 33.3003 22.8597 33.2667 22.8123C31.6767 20.565 29.2397 20.2264 28.2586 20.1856C28.1162 20.1719 27.9693 20.165 27.8217 20.165C26.6693 20.165 25.5654 20.5853 24.6785 20.9231C24.0663 21.1562 23.5375 21.3576 23.1728 21.3576C22.763 21.3576 22.2312 21.1537 21.6154 20.9178C20.7919 20.6021 19.8585 20.2444 18.8703 20.2444C18.8468 20.2444 18.8236 20.2447 18.8007 20.2451C16.5032 20.2778 14.3322 21.5472 13.1353 23.5577Z" fill="white"/>
<path d="M28.2606 14.0002C26.8693 14.0549 25.2003 14.882 24.2027 16.0105C23.355 16.959 22.5268 18.5405 22.745 20.1346C22.7587 20.2344 22.8427 20.3113 22.9466 20.3191C23.0405 20.3262 23.1363 20.3298 23.2318 20.3298C24.5923 20.3298 26.0598 19.603 27.0621 18.4325C28.1169 17.1966 28.6503 15.6105 28.489 14.1898C28.4763 14.0785 28.3748 13.9958 28.2606 14.0002Z" fill="white"/>
<path d="M52.5016 35.4593H47.3049L46.1775 39.0468H43L48.1352 24.2562H51.7739L56.9193 39.0468H53.6291L52.5016 35.4593ZM47.9712 33.1429H51.8354L49.9391 27.0852H49.8674L47.9712 33.1429Z" fill="white"/>
<path d="M64.7399 27.6284C66.1749 27.6284 67.3058 28.1409 68.1326 29.1659C68.9594 30.1977 69.3728 31.6088 69.3728 33.3991C69.3728 35.1894 68.9628 36.6005 68.1429 37.6323C67.316 38.6641 66.1954 39.18 64.7809 39.18C63.0931 39.18 61.9246 38.5035 61.2755 37.1505H61.214V42.5932H58.221V27.7617H61.173V29.6887H61.2345C61.5351 29.0532 61.9964 28.5509 62.6182 28.1819C63.24 27.8129 63.9473 27.6284 64.7399 27.6284ZM63.7457 36.7611C64.5247 36.7611 65.1465 36.457 65.6111 35.8488C66.0758 35.2407 66.3081 34.4241 66.3081 33.3991C66.3081 32.3878 66.0758 31.5746 65.6111 30.9596C65.1397 30.3515 64.5178 30.0474 63.7457 30.0474C62.9804 30.0474 62.3654 30.3549 61.9007 30.9699C61.436 31.5849 61.2037 32.398 61.2037 33.4094C61.2037 34.4207 61.436 35.2338 61.9007 35.8488C62.3654 36.457 62.9804 36.7611 63.7457 36.7611Z" fill="white"/>
<path d="M77.4907 27.6284C78.9257 27.6284 80.0566 28.1409 80.8834 29.1659C81.7102 30.1977 82.1236 31.6088 82.1236 33.3991C82.1236 35.1894 81.7136 36.6005 80.8937 37.6323C80.0668 38.6641 78.9462 39.18 77.5317 39.18C75.8439 39.18 74.6754 38.5035 74.0263 37.1505H73.9648V42.5932H70.9718V27.7617H73.9238V29.6887H73.9853C74.2859 29.0532 74.7472 28.5509 75.369 28.1819C75.9908 27.8129 76.6981 27.6284 77.4907 27.6284ZM76.4965 36.7611C77.2755 36.7611 77.8973 36.457 78.3619 35.8488C78.8266 35.2407 79.0589 34.4241 79.0589 33.3991C79.0589 32.3878 78.8266 31.5746 78.3619 30.9596C77.8905 30.3515 77.2686 30.0474 76.4965 30.0474C75.7312 30.0474 75.1162 30.3549 74.6515 30.9699C74.1868 31.5849 73.9545 32.398 73.9545 33.4094C73.9545 34.4207 74.1868 35.2338 74.6515 35.8488C75.1162 36.457 75.7312 36.7611 76.4965 36.7611Z" fill="white"/>
<path d="M90.877 34.8341C90.9453 35.4354 91.2665 35.924 91.8405 36.2998C92.4076 36.6688 93.1046 36.8533 93.9315 36.8533C94.7514 36.8533 95.4211 36.6756 95.9404 36.3203C96.4529 35.9718 96.7092 35.5242 96.7092 34.9776C96.7092 34.4993 96.5178 34.1132 96.1352 33.8193C95.7525 33.5255 95.1136 33.2795 94.2185 33.0814L92.2915 32.6611C89.5787 32.0803 88.2223 30.7034 88.2223 28.5304C88.2223 27.1775 88.7519 26.0807 89.811 25.2402C90.8633 24.4134 92.2197 24 93.8802 24C95.5885 24 96.9552 24.4066 97.9801 25.2197C98.9915 26.0261 99.5108 27.1023 99.5381 28.4484H96.6374C96.5896 27.8266 96.3128 27.3346 95.8072 26.9725C95.3083 26.6171 94.6694 26.4395 93.8905 26.4395C93.1251 26.4395 92.5101 26.6069 92.0455 26.9417C91.574 27.2765 91.3382 27.7173 91.3382 28.2639C91.3382 28.7149 91.5296 29.0839 91.9122 29.3709C92.2881 29.6442 92.9031 29.88 93.7572 30.0782L95.5509 30.4574C97.0337 30.7717 98.1134 31.2637 98.7899 31.9334C99.4664 32.5962 99.8046 33.4914 99.8046 34.6188C99.8046 36.0538 99.2648 37.1915 98.1851 38.032C97.1055 38.8794 95.6466 39.303 93.8085 39.303C92.025 39.303 90.6071 38.9067 89.5548 38.114C88.4956 37.3145 87.9421 36.2212 87.8943 34.8341H90.877Z" fill="white"/>
<path d="M105.288 25.2505V27.7617H107.379V30.0269H105.288V35.5106C105.288 36.3716 105.736 36.8021 106.631 36.8021C106.925 36.8021 107.174 36.785 107.379 36.7508V38.9648C106.969 39.0468 106.488 39.0878 105.934 39.0878C104.629 39.0878 103.696 38.8486 103.136 38.3703C102.575 37.8919 102.295 37.1027 102.295 36.0026V30.0269H100.768V27.7617H102.295V25.2505H105.288Z" fill="white"/>
<path d="M114.083 39.2415C112.368 39.2415 111.011 38.7222 110.013 37.6835C109.016 36.6449 108.517 35.2167 108.517 33.3991C108.517 31.602 109.019 30.1772 110.024 29.1249C111.028 28.0863 112.381 27.5669 114.083 27.5669C115.791 27.5669 117.144 28.0863 118.142 29.1249C119.146 30.1704 119.648 31.5951 119.648 33.3991C119.648 35.2236 119.149 36.6551 118.152 37.6938C117.161 38.7256 115.805 39.2415 114.083 39.2415ZM114.083 36.9353C114.875 36.9353 115.494 36.6278 115.938 36.0128C116.382 35.391 116.604 34.5198 116.604 33.3991C116.604 32.2921 116.379 31.4243 115.928 30.7956C115.483 30.1738 114.868 29.8629 114.083 29.8629C113.29 29.8629 112.672 30.1738 112.227 30.7956C111.776 31.4243 111.551 32.2921 111.551 33.3991C111.551 34.5198 111.776 35.391 112.227 36.0128C112.672 36.6278 113.29 36.9353 114.083 36.9353Z" fill="white"/>
<path d="M121.258 27.7617H124.148V29.7809H124.209C124.599 28.3459 125.494 27.6284 126.895 27.6284C127.23 27.6284 127.51 27.666 127.735 27.7412V30.3959C127.469 30.2729 127.11 30.2114 126.659 30.2114C125.901 30.2114 125.31 30.4335 124.886 30.8776C124.462 31.3218 124.25 31.9402 124.25 32.7329V39.0468H121.258V27.7617Z" fill="white"/>
<path d="M133.711 29.8014C133.028 29.8014 132.457 30.0269 131.999 30.4779C131.548 30.9289 131.296 31.5165 131.241 32.2409H136.11C136.082 31.5029 135.85 30.9118 135.413 30.4676C134.975 30.0235 134.408 29.8014 133.711 29.8014ZM138.908 35.6028C138.744 36.6961 138.194 37.5742 137.258 38.237C136.321 38.9067 135.167 39.2415 133.793 39.2415C132.078 39.2415 130.725 38.7256 129.734 37.6938C128.75 36.662 128.258 35.2475 128.258 33.4504C128.258 31.6532 128.747 30.2251 129.724 29.1659C130.708 28.0999 132.027 27.5669 133.68 27.5669C135.307 27.5669 136.598 28.0726 137.555 29.0839C138.518 30.0952 139 31.4585 139 33.1736V34.0961H131.21V34.2806C131.21 35.0937 131.453 35.7531 131.938 36.2588C132.423 36.7576 133.059 37.007 133.844 37.007C134.411 37.007 134.9 36.8806 135.31 36.6278C135.727 36.3818 136.007 36.0401 136.151 35.6028H138.908Z" fill="white"/>
</svg>
