<svg width="165" height="55" viewBox="0 0 165 55" fill="none" xmlns="http://www.w3.org/2000/svg">
<rect x="1" y="1" width="163" height="53" rx="9" stroke="white" stroke-width="2"/>
<path d="M44.9109 17.7877C46.0157 17.7877 46.8148 17.2248 46.8148 16.4257C46.8148 15.7308 46.2034 15.3626 45.7378 15.3139C46.245 15.2236 46.7454 14.8414 46.7454 14.2577C46.7454 13.4864 45.9949 13 44.9109 13C44.0979 13 43.4378 13.3127 43.0625 13.7366L43.5559 14.355C43.8825 14.0423 44.3619 13.8755 44.8136 13.8755C45.3417 13.8755 45.7586 14.0562 45.7586 14.4245C45.7586 14.765 45.3626 14.9178 44.8136 14.9178H43.8755V15.7864H44.8136C45.5085 15.7864 45.8351 15.9532 45.8351 16.3215C45.8351 16.6689 45.4807 16.9121 44.8692 16.9121C44.4175 16.9121 43.8338 16.7176 43.5142 16.384L43 17.0441C43.3405 17.4611 44.0562 17.7877 44.9109 17.7877Z" fill="white"/>
<path d="M51.8829 17.7043L50.0971 13.0695H48.8602L47.0674 17.7043H48.1931L48.485 16.9191H50.4723L50.7572 17.7043H51.8829ZM50.2013 16.0505H48.756L49.4786 14.0562L50.2013 16.0505Z" fill="white"/>
<path d="M53.2976 17.7043V13.9381H55.5907V13.0695H52.3109V17.7043H53.2976Z" fill="white"/>
<path d="M57.2673 17.7043V16.0574H58.4486C59.4492 16.0574 60.0051 15.3695 60.0051 14.5635C60.0051 13.7505 59.4562 13.0695 58.4486 13.0695H56.2806V17.7043H57.2673ZM58.3166 15.1888H57.2673V13.9381H58.3166C58.7057 13.9381 58.9976 14.1743 58.9976 14.5635C58.9976 14.9456 58.7057 15.1888 58.3166 15.1888Z" fill="white"/>
<path d="M61.1064 17.7877C61.9333 17.7877 62.3364 17.3777 62.6213 16.8148L64.5321 13.0695H63.4134L62.2599 15.5293L61.1134 13.0695H59.9946L61.704 16.4327C61.5234 16.7731 61.3705 16.9121 61.03 16.9121C60.8076 16.9121 60.5922 16.794 60.4324 16.662L60.0572 17.4541C60.2656 17.6417 60.6826 17.7877 61.1064 17.7877Z" fill="white"/>
<path d="M66.551 17.7877C67.6558 17.7877 68.4549 17.2248 68.4549 16.4257C68.4549 15.7308 67.8434 15.3626 67.3779 15.3139C67.8851 15.2236 68.3854 14.8414 68.3854 14.2577C68.3854 13.4864 67.635 13 66.551 13C65.738 13 65.0778 13.3127 64.7026 13.7366L65.196 14.355C65.5226 14.0423 66.002 13.8755 66.4537 13.8755C66.9818 13.8755 67.3987 14.0562 67.3987 14.4245C67.3987 14.765 67.0026 14.9178 66.4537 14.9178H65.5156V15.7864H66.4537C67.1486 15.7864 67.4751 15.9532 67.4751 16.3215C67.4751 16.6689 67.1208 16.9121 66.5093 16.9121C66.0576 16.9121 65.4739 16.7176 65.1543 16.384L64.6401 17.0441C64.9806 17.4611 65.6963 17.7877 66.551 17.7877Z" fill="white"/>
<path d="M70.1528 17.7043L72.3625 14.5982V17.7043H73.3492V13.0695H72.3347L70.1876 16.0644V13.0695H69.2009V17.7043H70.1528Z" fill="white"/>
<path d="M76.3269 17.7043V13.9381H77.6749V13.0695H73.9782V13.9381H75.3332V17.7043H76.3269Z" fill="white"/>
<path d="M81.5873 17.7043V16.8357H79.2942V15.7864H81.5386V14.9178H79.2942V13.9381H81.5873V13.0695H78.3075V17.7043H81.5873Z" fill="white"/>
<path d="M86.6519 17.7043C87.5344 17.7043 88 17.1484 88 16.4535C88 15.8698 87.6039 15.3904 87.1106 15.3139C87.5483 15.2236 87.9097 14.8345 87.9097 14.2508C87.9097 13.6323 87.458 13.0695 86.5755 13.0695H84.1365V17.7043H86.6519ZM86.3601 14.9248H85.1232V13.9172H86.3601C86.6936 13.9172 86.9021 14.1326 86.9021 14.4245C86.9021 14.7163 86.6936 14.9248 86.3601 14.9248ZM86.3948 16.8496H85.1232V15.7725H86.3948C86.784 15.7725 86.9924 16.0227 86.9924 16.3145C86.9924 16.6481 86.7701 16.8496 86.3948 16.8496Z" fill="white"/>
<path d="M50.869 31.0332H58.2344C58.2764 31.1992 58.3114 31.3997 58.3393 31.6349C58.3673 31.87 58.3813 32.1051 58.3813 32.3402C58.3813 33.2946 58.2344 34.1936 57.9406 35.0373C57.6469 35.8811 57.1852 36.6349 56.5557 37.2988C55.8842 38.0042 55.0798 38.5505 54.1425 38.9378C53.2052 39.325 52.1351 39.5187 50.932 39.5187C49.8408 39.5187 48.8126 39.325 47.8473 38.9378C46.882 38.5505 46.0427 38.0111 45.3292 37.3195C44.6158 36.6279 44.0492 35.8119 43.6295 34.8714C43.2098 33.917 43 32.8797 43 31.7593C43 30.639 43.2098 29.6086 43.6295 28.668C44.0492 27.7137 44.6158 26.8907 45.3292 26.1992C46.0427 25.5076 46.882 24.9682 47.8473 24.5809C48.8126 24.1936 49.8408 24 50.932 24C52.149 24 53.2332 24.2075 54.1845 24.6224C55.1498 25.0373 55.9751 25.6113 56.6606 26.3444L54.7091 28.2324C54.2195 27.7206 53.6739 27.3333 53.0723 27.0705C52.4708 26.7939 51.7503 26.6556 50.911 26.6556C50.2255 26.6556 49.575 26.7801 48.9595 27.029C48.3439 27.2642 47.8053 27.603 47.3437 28.0456C46.882 28.4882 46.5113 29.0277 46.2315 29.6639C45.9657 30.2863 45.8328 30.9848 45.8328 31.7593C45.8328 32.5339 45.9657 33.2393 46.2315 33.8755C46.5113 34.4979 46.882 35.0304 47.3437 35.473C47.8193 35.9156 48.3649 36.2614 48.9805 36.5104C49.596 36.7455 50.2535 36.8631 50.953 36.8631C51.7503 36.8631 52.4218 36.7524 52.9674 36.5311C53.527 36.296 54.0026 35.9986 54.3943 35.639C54.6741 35.39 54.9119 35.0788 55.1078 34.7054C55.3176 34.3181 55.4785 33.8893 55.5904 33.4191H50.869V31.0332Z" fill="white"/>
<path d="M64.8378 28.6888C65.6352 28.6888 66.3627 28.8271 67.0202 29.1037C67.6917 29.3665 68.2652 29.74 68.7409 30.2241C69.2305 30.6943 69.6082 31.2614 69.874 31.9253C70.1538 32.5892 70.2937 33.3154 70.2937 34.1037C70.2937 34.8921 70.1538 35.6183 69.874 36.2822C69.6082 36.9461 69.2305 37.5201 68.7409 38.0041C68.2652 38.4744 67.6917 38.8479 67.0202 39.1245C66.3627 39.3873 65.6352 39.5187 64.8378 39.5187C64.0404 39.5187 63.306 39.3873 62.6345 39.1245C61.977 38.8479 61.4034 38.4744 60.9138 38.0041C60.4382 37.5201 60.0605 36.9461 59.7807 36.2822C59.5149 35.6183 59.382 34.8921 59.382 34.1037C59.382 33.3154 59.5149 32.5892 59.7807 31.9253C60.0605 31.2614 60.4382 30.6943 60.9138 30.2241C61.4034 29.74 61.977 29.3665 62.6345 29.1037C63.306 28.8271 64.0404 28.6888 64.8378 28.6888ZM64.8378 37.0083C65.1876 37.0083 65.5233 36.9461 65.8451 36.8216C66.1808 36.6833 66.4746 36.4896 66.7264 36.2407C66.9782 35.9917 67.1741 35.6874 67.3139 35.3278C67.4678 34.9682 67.5448 34.5602 67.5448 34.1037C67.5448 33.6473 67.4678 33.2393 67.3139 32.8797C67.1741 32.5201 66.9782 32.2158 66.7264 31.9668C66.4746 31.7178 66.1808 31.5311 65.8451 31.4066C65.5233 31.2683 65.1876 31.1992 64.8378 31.1992C64.4741 31.1992 64.1314 31.2683 63.8096 31.4066C63.4879 31.5311 63.2011 31.7178 62.9493 31.9668C62.6975 32.2158 62.4946 32.5201 62.3407 32.8797C62.2008 33.2393 62.1309 33.6473 62.1309 34.1037C62.1309 34.5602 62.2008 34.9682 62.3407 35.3278C62.4946 35.6874 62.6975 35.9917 62.9493 36.2407C63.2011 36.4896 63.4879 36.6833 63.8096 36.8216C64.1314 36.9461 64.4741 37.0083 64.8378 37.0083Z" fill="white"/>
<path d="M76.6135 28.6888C77.4109 28.6888 78.1383 28.8271 78.7958 29.1037C79.4673 29.3665 80.0409 29.74 80.5165 30.2241C81.0061 30.6943 81.3839 31.2614 81.6497 31.9253C81.9294 32.5892 82.0693 33.3154 82.0693 34.1037C82.0693 34.8921 81.9294 35.6183 81.6497 36.2822C81.3839 36.9461 81.0061 37.5201 80.5165 38.0041C80.0409 38.4744 79.4673 38.8479 78.7958 39.1245C78.1383 39.3873 77.4109 39.5187 76.6135 39.5187C75.8161 39.5187 75.0816 39.3873 74.4102 39.1245C73.7527 38.8479 73.1791 38.4744 72.6895 38.0041C72.2138 37.5201 71.8361 36.9461 71.5563 36.2822C71.2905 35.6183 71.1576 34.8921 71.1576 34.1037C71.1576 33.3154 71.2905 32.5892 71.5563 31.9253C71.8361 31.2614 72.2138 30.6943 72.6895 30.2241C73.1791 29.74 73.7527 29.3665 74.4102 29.1037C75.0816 28.8271 75.8161 28.6888 76.6135 28.6888ZM76.6135 37.0083C76.9632 37.0083 77.299 36.9461 77.6207 36.8216C77.9565 36.6833 78.2502 36.4896 78.502 36.2407C78.7539 35.9917 78.9497 35.6874 79.0896 35.3278C79.2435 34.9682 79.3204 34.5602 79.3204 34.1037C79.3204 33.6473 79.2435 33.2393 79.0896 32.8797C78.9497 32.5201 78.7539 32.2158 78.502 31.9668C78.2502 31.7178 77.9565 31.5311 77.6207 31.4066C77.299 31.2683 76.9632 31.1992 76.6135 31.1992C76.2498 31.1992 75.907 31.2683 75.5853 31.4066C75.2635 31.5311 74.9767 31.7178 74.7249 31.9668C74.4731 32.2158 74.2703 32.5201 74.1164 32.8797C73.9765 33.2393 73.9065 33.6473 73.9065 34.1037C73.9065 34.5602 73.9765 34.9682 74.1164 35.3278C74.2703 35.6874 74.4731 35.9917 74.7249 36.2407C74.9767 36.4896 75.2635 36.6833 75.5853 36.8216C75.907 36.9461 76.2498 37.0083 76.6135 37.0083Z" fill="white"/>
<path d="M88.2632 44C87.5358 44 86.8853 43.9032 86.3117 43.7095C85.7521 43.5297 85.2625 43.2877 84.8428 42.9834C84.4232 42.6929 84.0734 42.3679 83.7936 42.0083C83.5138 41.6487 83.311 41.2891 83.1851 40.9295L85.8081 39.8921C86.004 40.4315 86.3257 40.8465 86.7734 41.1369C87.221 41.4412 87.7176 41.5934 88.2632 41.5934C89.1306 41.5934 89.8161 41.3237 90.3197 40.7842C90.8233 40.2586 91.0751 39.5187 91.0751 38.5643V37.8589H90.9072C90.5855 38.3015 90.1588 38.6542 89.6272 38.917C89.1096 39.166 88.4941 39.2905 87.7806 39.2905C87.1651 39.2905 86.5635 39.166 85.976 38.917C85.4024 38.668 84.8918 38.3154 84.4441 37.8589C83.9965 37.3887 83.6328 36.8285 83.353 36.1784C83.0732 35.5284 82.9333 34.8022 82.9333 34C82.9333 33.1978 83.0732 32.4716 83.353 31.8216C83.6328 31.1577 83.9965 30.5975 84.4441 30.1411C84.8918 29.6708 85.4024 29.3112 85.976 29.0622C86.5635 28.8133 87.1651 28.6888 87.7806 28.6888C88.4941 28.6888 89.1096 28.8202 89.6272 29.083C90.1588 29.332 90.5855 29.6777 90.9072 30.1203H91.0751V29.0207H93.6981V38.4606C93.6981 39.3181 93.5652 40.0858 93.2994 40.7635C93.0336 41.455 92.6629 42.036 92.1872 42.5062C91.7116 42.9903 91.1381 43.3568 90.4666 43.6058C89.8091 43.8686 89.0746 44 88.2632 44ZM88.3682 36.8423C88.7039 36.8423 89.0326 36.7801 89.3544 36.6556C89.6901 36.5311 89.9839 36.3513 90.2357 36.1162C90.4875 35.8672 90.6904 35.5698 90.8443 35.2241C90.9982 34.8645 91.0751 34.4564 91.0751 34C91.0751 33.5436 90.9982 33.1355 90.8443 32.7759C90.6904 32.4163 90.4875 32.1189 90.2357 31.8838C89.9839 31.6349 89.6901 31.4481 89.3544 31.3237C89.0326 31.1992 88.7039 31.1369 88.3682 31.1369C88.0324 31.1369 87.7037 31.1992 87.3819 31.3237C87.0601 31.4481 86.7734 31.6349 86.5216 31.8838C86.2697 32.1328 86.0669 32.4371 85.913 32.7967C85.7591 33.1425 85.6822 33.5436 85.6822 34C85.6822 34.4564 85.7591 34.8645 85.913 35.2241C86.0669 35.5698 86.2697 35.8672 86.5216 36.1162C86.7734 36.3513 87.0601 36.5311 87.3819 36.6556C87.7037 36.7801 88.0324 36.8423 88.3682 36.8423Z" fill="white"/>
<path d="M95.7268 39.1867V24.332H98.4757V39.1867H95.7268Z" fill="white"/>
<path d="M110.149 36.7386C109.673 37.5685 109.03 38.2393 108.218 38.751C107.421 39.2628 106.442 39.5187 105.28 39.5187C104.497 39.5187 103.77 39.3873 103.098 39.1245C102.441 38.8479 101.867 38.4675 101.377 37.9834C100.888 37.4993 100.503 36.9322 100.223 36.2822C99.9575 35.6183 99.8246 34.8921 99.8246 34.1037C99.8246 33.3707 99.9575 32.6791 100.223 32.029C100.489 31.3651 100.86 30.7911 101.335 30.3071C101.811 29.8091 102.371 29.4149 103.014 29.1245C103.672 28.834 104.392 28.6888 105.176 28.6888C106.001 28.6888 106.735 28.8271 107.379 29.1037C108.022 29.3665 108.561 29.74 108.995 30.2241C109.428 30.6943 109.757 31.2545 109.981 31.9046C110.205 32.5546 110.317 33.26 110.317 34.0207C110.317 34.1176 110.317 34.2006 110.317 34.2697C110.303 34.3527 110.296 34.4288 110.296 34.4979C110.282 34.5671 110.275 34.6432 110.275 34.7261H102.532C102.588 35.1411 102.699 35.5007 102.867 35.805C103.049 36.0954 103.266 36.3444 103.518 36.5519C103.784 36.7455 104.07 36.8907 104.378 36.9876C104.686 37.0705 105.001 37.112 105.322 37.112C105.952 37.112 106.47 36.9737 106.875 36.6971C107.295 36.4066 107.624 36.047 107.862 35.6183L110.149 36.7386ZM107.652 32.7967C107.638 32.6169 107.575 32.4163 107.463 32.195C107.365 31.9737 107.211 31.7663 107.001 31.5726C106.805 31.379 106.554 31.2199 106.246 31.0954C105.952 30.971 105.595 30.9087 105.176 30.9087C104.588 30.9087 104.07 31.0747 103.623 31.4066C103.175 31.7386 102.86 32.2019 102.678 32.7967H107.652Z" fill="white"/>
<path d="M116.389 39.1867V24.332H121.677C122.391 24.332 123.055 24.4495 123.671 24.6846C124.3 24.9059 124.846 25.2241 125.307 25.639C125.769 26.0539 126.133 26.5519 126.399 27.1328C126.664 27.6999 126.797 28.3292 126.797 29.0207C126.797 29.7261 126.664 30.3693 126.399 30.9502C126.133 31.5173 125.769 32.0083 125.307 32.4232C124.846 32.8382 124.3 33.1632 123.671 33.3983C123.055 33.6196 122.391 33.7303 121.677 33.7303H119.222V39.1867H116.389ZM121.719 31.0747C122.461 31.0747 123.02 30.8672 123.398 30.4523C123.776 30.0373 123.964 29.5602 123.964 29.0207C123.964 28.758 123.915 28.5021 123.818 28.2531C123.734 28.0041 123.594 27.7898 123.398 27.61C123.216 27.4163 122.985 27.2642 122.705 27.1535C122.426 27.0429 122.097 26.9876 121.719 26.9876H119.222V31.0747H121.719Z" fill="white"/>
<path d="M128.259 39.1867V24.332H131.008V39.1867H128.259Z" fill="white"/>
<path d="M139.282 38.1079H139.114C138.792 38.4952 138.401 38.8271 137.939 39.1037C137.491 39.3804 136.911 39.5187 136.197 39.5187C135.666 39.5187 135.162 39.4288 134.686 39.249C134.225 39.083 133.819 38.8479 133.469 38.5436C133.12 38.2393 132.847 37.8728 132.651 37.444C132.455 37.0152 132.357 36.545 132.357 36.0332C132.357 35.5076 132.462 35.0373 132.672 34.6224C132.882 34.1936 133.176 33.8271 133.553 33.5228C133.931 33.2185 134.372 32.9903 134.875 32.8382C135.393 32.6722 135.953 32.5892 136.554 32.5892C137.226 32.5892 137.778 32.6445 138.212 32.7552C138.645 32.852 139.002 32.9557 139.282 33.0664V32.7552C139.282 32.2158 139.065 31.7732 138.631 31.4274C138.198 31.0678 137.659 30.888 137.016 30.888C136.064 30.888 135.26 31.2822 134.603 32.0705L132.609 30.722C133.7 29.3665 135.19 28.6888 137.079 28.6888C138.673 28.6888 139.891 29.0622 140.73 29.8091C141.569 30.5422 141.989 31.6349 141.989 33.0871V39.1867H139.282V38.1079ZM139.282 35.0581C138.96 34.9059 138.624 34.7884 138.275 34.7054C137.939 34.6086 137.568 34.5602 137.163 34.5602C136.505 34.5602 135.994 34.7054 135.631 34.9959C135.281 35.2725 135.106 35.6183 135.106 36.0332C135.106 36.4481 135.274 36.7801 135.61 37.029C135.96 37.278 136.358 37.4025 136.806 37.4025C137.17 37.4025 137.505 37.3402 137.813 37.2158C138.121 37.0775 138.38 36.9046 138.59 36.6971C138.813 36.4758 138.981 36.2268 139.093 35.9502C139.219 35.6598 139.282 35.3624 139.282 35.0581Z" fill="white"/>
<path d="M146.886 38.6888L142.564 29.0207H145.69L148.292 35.1826H148.439L150.936 29.0207H154L147.558 43.668H144.599L146.886 38.6888Z" fill="white"/>
<path d="M15.3181 16.3186C14.6763 15.9309 13.9115 15.8962 13.2445 16.219L24.4282 27.4672L28.0848 23.7801L15.3181 16.3186ZM12.217 17.26C12.0759 17.5598 12 17.8933 12 18.2366V38.812C12 39.1567 12.0764 39.4853 12.2189 39.7788L23.3982 28.5057L12.217 17.26ZM24.4297 29.5429L13.264 40.8022C13.5603 40.9399 13.8756 41 14.1904 41C14.5791 41 14.9668 40.9067 15.3181 40.6948L28.0873 33.2221L24.4297 29.5429ZM32.9472 26.6219C32.9428 26.619 32.9379 26.6161 32.9335 26.6136L29.3888 24.5418L25.4591 28.5043L29.3912 32.4589C29.3912 32.4589 32.9428 30.3808 32.9472 30.3783C33.6064 29.9765 34 29.2743 34 28.4999C34 27.7255 33.6064 27.0233 32.9472 26.6219Z" fill="white"/>
</svg>
